<svg width="88" height="22" viewBox="0 0 88 22" fill="none" xmlns="http://www.w3.org/2000/svg">
<path d="M0.416 3.288C1.04 2.264 1.824 1.544 2.768 1.128C3.728 0.696 4.792 0.575999 5.96 0.767999C7.16 0.991999 8.112 1.56 8.816 2.472C9.552 3.432 9.872 4.568 9.776 5.88C9.712 6.552 9.6 7.168 9.44 7.728C9.296 8.288 9.088 8.792 8.816 9.24C8.56 9.688 8.28 10.112 7.976 10.512C7.672 10.912 7.36 11.296 7.04 11.664C6.72 12.032 6.368 12.392 5.984 12.744C5.616 13.096 5.224 13.448 4.808 13.8C4.408 14.152 3.992 14.528 3.56 14.928C3.128 15.328 2.68 15.736 2.216 16.152L9.296 16.08C9.68 16.144 9.856 16.352 9.824 16.704C9.808 17.04 9.608 17.248 9.224 17.328C3.848 17.424 0.896 17.4 0.368 17.256C0.384 16.616 0.6 16.08 1.016 15.648C1.224 15.456 1.6 15.12 2.144 14.64C2.688 14.144 3.4 13.512 4.28 12.744C6.056 11.208 7.2 9.952 7.712 8.976C7.984 8.48 8.192 7.968 8.336 7.44C8.496 6.912 8.592 6.368 8.624 5.808C8.704 4.672 8.472 3.776 7.928 3.12C7.416 2.464 6.672 2.048 5.696 1.872C4.752 1.728 3.912 1.832 3.176 2.184C2.424 2.52 1.784 3.096 1.256 3.912C0.936 4.328 0.68 4.44 0.488 4.248C0.264 4.056 0.24 3.736 0.416 3.288Z" fill="url(#paint0_linear_1_8)"/>
<path d="M13.52 1.56C13.472 6.12 13.448 8.736 13.448 9.408C13.832 8.864 14.552 8.448 15.608 8.16C16.648 7.904 17.72 7.928 18.824 8.232C19.896 8.536 20.696 9.128 21.224 10.008C21.464 10.44 21.648 10.872 21.776 11.304C21.904 11.72 21.968 12.144 21.968 12.576C21.968 13.456 21.8 14.28 21.464 15.048C21.096 15.848 20.64 16.456 20.096 16.872C19.536 17.304 18.624 17.584 17.36 17.712C16.08 17.824 15.056 17.608 14.288 17.064C13.888 16.792 13.56 16.504 13.304 16.2C13.048 15.88 12.848 15.552 12.704 15.216C12.576 14.864 12.472 14.496 12.392 14.112C12.328 13.712 12.296 13.288 12.296 12.84C12.28 12.392 12.28 11.224 12.296 9.336C12.328 7.432 12.36 4.8 12.392 1.44C12.488 0.959999 12.704 0.727999 13.04 0.743999C13.36 0.759999 13.52 1.032 13.52 1.56ZM15.68 16.488C16.528 16.76 17.264 16.816 17.888 16.656C18.208 16.576 18.512 16.48 18.8 16.368C19.088 16.256 19.36 16.112 19.616 15.936C20.128 15.6 20.512 14.864 20.768 13.728C21.024 12.608 20.896 11.632 20.384 10.8C19.84 9.984 19.152 9.448 18.32 9.192C17.488 8.936 16.56 9 15.536 9.384C15.04 9.56 14.632 9.784 14.312 10.056C14.008 10.328 13.792 10.632 13.664 10.968C13.552 11.32 13.464 11.696 13.4 12.096C13.352 12.48 13.344 12.88 13.376 13.296C13.424 14.16 13.624 14.84 13.976 15.336C14.152 15.592 14.376 15.816 14.648 16.008C14.936 16.2 15.28 16.36 15.68 16.488ZM25.232 13.032C25.312 13.56 25.432 14.032 25.592 14.448C25.768 14.848 25.992 15.192 26.264 15.48C26.52 15.752 26.848 15.992 27.248 16.2C27.648 16.408 28.12 16.576 28.664 16.704C29.768 16.96 30.952 16.888 32.216 16.488C32.648 16.392 32.896 16.48 32.96 16.752C33.024 17.056 32.848 17.304 32.432 17.496C31.184 17.928 29.96 18.048 28.76 17.856C27.528 17.68 26.512 17.192 25.712 16.392C24.896 15.576 24.44 14.456 24.344 13.032C24.28 12.312 24.28 11.672 24.344 11.112C24.424 10.536 24.544 10.032 24.704 9.6C24.88 9.184 25.08 8.816 25.304 8.496C25.528 8.176 25.784 7.896 26.072 7.656C26.632 7.192 27.256 6.864 27.944 6.672C28.28 6.592 28.616 6.544 28.952 6.528C29.304 6.512 29.632 6.52 29.936 6.552C30.592 6.648 31.184 6.872 31.712 7.224C32 7.384 32.256 7.576 32.48 7.8C32.704 8.008 32.896 8.24 33.056 8.496C33.344 9.024 33.576 9.648 33.752 10.368C33.896 11.088 33.92 11.696 33.824 12.192C33.728 12.688 33.496 12.96 33.128 13.008L25.232 13.032ZM32.792 12.048C32.952 10.864 32.744 9.856 32.168 9.024C31.528 8.192 30.816 7.72 30.032 7.608C29.2 7.48 28.448 7.536 27.776 7.776C27.44 7.904 27.12 8.096 26.816 8.352C26.528 8.592 26.272 8.904 26.048 9.288C25.568 10.04 25.344 10.952 25.376 12.024L32.792 12.048ZM36.2 6.96C36.648 6.288 37.272 5.816 38.072 5.544C38.84 5.336 39.64 5.312 40.472 5.472C41.256 5.632 41.928 6.008 42.488 6.6C42.76 6.904 42.984 7.232 43.16 7.584C43.352 7.92 43.48 8.288 43.544 8.688C43.624 9.088 43.656 9.544 43.64 10.056C43.624 10.552 43.568 11.112 43.472 11.736C43.36 12.36 43.248 12.912 43.136 13.392C43.04 13.872 42.952 14.28 42.872 14.616C43.128 15.272 43.48 15.728 43.928 15.984C44.36 16.24 44.824 16.36 45.32 16.344C45.784 16.328 46.008 16.504 45.992 16.872C45.976 17.272 45.656 17.472 45.032 17.472C44.44 17.472 43.896 17.288 43.4 16.92C42.872 16.536 42.528 16.2 42.368 15.912C42 16.648 41.488 17.144 40.832 17.4C40.128 17.672 39.368 17.752 38.552 17.64C38.152 17.576 37.784 17.464 37.448 17.304C37.128 17.144 36.856 16.912 36.632 16.608C36.168 16.048 35.936 15.24 35.936 14.184C35.92 13.16 36.24 12.256 36.896 11.472C37.536 10.704 38.336 10.36 39.296 10.44C40.224 10.488 40.912 10.728 41.36 11.16C41.792 11.56 42.08 12.128 42.224 12.864C42.512 10.896 42.592 9.608 42.464 9C42.32 8.408 42.048 7.888 41.648 7.44C41.264 6.976 40.776 6.672 40.184 6.528C39.576 6.4 38.984 6.424 38.408 6.6C37.816 6.776 37.336 7.136 36.968 7.68C36.584 7.92 36.312 7.96 36.152 7.8C35.976 7.624 35.992 7.344 36.2 6.96ZM41.432 13.296C41.128 12.672 40.848 12.232 40.592 11.976C40.368 11.736 39.936 11.576 39.296 11.496C38.656 11.448 38.176 11.576 37.856 11.88C37.68 12.04 37.536 12.208 37.424 12.384C37.328 12.544 37.248 12.712 37.184 12.888C37.12 13.08 37.072 13.296 37.04 13.536C37.024 13.76 37.008 14.016 36.992 14.304C36.976 14.848 37.136 15.344 37.472 15.792C37.776 16.24 38.216 16.504 38.792 16.584C39.352 16.664 39.856 16.608 40.304 16.416C40.752 16.192 41.096 15.832 41.336 15.336C41.544 14.824 41.576 14.144 41.432 13.296ZM49.736 7.272C49.768 11.272 49.912 13.696 50.168 14.544C50.424 15.408 50.784 16.016 51.248 16.368C51.68 16.704 52.224 16.872 52.88 16.872C53.52 16.872 54.088 16.688 54.584 16.32C55.096 15.952 55.496 15.264 55.784 14.256C56.104 13.248 56.248 10.992 56.216 7.488C56.28 6.688 56.64 6.472 57.296 6.84C57.456 8.296 57.504 11.88 57.44 17.592C57.408 18.056 57.224 18.312 56.888 18.36C56.568 18.376 56.432 18.12 56.48 17.592C56.48 16.984 56.456 16.312 56.408 15.576C56.232 16.008 56.024 16.376 55.784 16.68C55.56 16.984 55.312 17.232 55.04 17.424C54.48 17.792 53.784 18 52.952 18.048C52.136 18.08 51.352 17.888 50.6 17.472C49.88 17.072 49.336 16.232 48.968 14.952C48.792 14.312 48.672 13.36 48.608 12.096C48.56 10.816 48.552 9.208 48.584 7.272C48.648 6.76 48.864 6.504 49.232 6.504C49.568 6.504 49.736 6.76 49.736 7.272Z" fill="#71562F"/>
<path d="M64.928 7.68H69.536C69.952 7.792 70.144 8.008 70.112 8.328C70.08 8.648 69.864 8.84 69.464 8.904H64.88C64.784 12.936 64.888 15.184 65.192 15.648C65.496 16.176 65.904 16.496 66.416 16.608C66.928 16.752 67.6 16.848 68.432 16.896C68.864 16.912 69.064 17.096 69.032 17.448C68.984 17.784 68.752 17.968 68.336 18C67.28 18 66.448 17.88 65.84 17.64C65.248 17.416 64.728 16.936 64.28 16.2C63.816 15.48 63.648 13.056 63.776 8.928L60.608 8.976C60.16 8.944 59.936 8.76 59.936 8.424C59.936 8.056 60.16 7.832 60.608 7.752L63.824 7.704L63.8 2.496C63.832 1.952 64.008 1.688 64.328 1.704C64.648 1.72 64.84 1.936 64.904 2.352L64.928 7.68ZM81.44 8.424C81.136 9.688 80.768 10.888 80.336 12.024C79.92 13.144 79.432 14.2 78.872 15.192C77.752 17.16 76.232 19.096 74.312 21C73.912 21.272 73.624 21.304 73.448 21.096C73.24 20.888 73.264 20.592 73.52 20.208C74.72 19.264 75.88 17.856 77 15.984C75.656 15.408 74.624 14.44 73.904 13.08C73.552 12.392 73.264 11.64 73.04 10.824C72.816 10.008 72.664 9.12 72.584 8.16C72.568 7.696 72.704 7.416 72.992 7.32C73.296 7.24 73.472 7.4 73.52 7.8C73.632 9.608 74.024 11.152 74.696 12.432C75.368 13.664 76.328 14.56 77.576 15.12C78.184 14.24 78.72 13.192 79.184 11.976C79.648 10.76 80.04 9.376 80.36 7.824C80.536 7.472 80.768 7.36 81.056 7.488C81.328 7.648 81.456 7.96 81.44 8.424Z" fill="url(#paint1_linear_1_8)"/>
<path d="M87.344 16.248C87.344 16.728 87.192 17.12 86.888 17.424C86.6 17.728 86.192 17.88 85.664 17.88C85.248 17.88 84.872 17.736 84.536 17.448C84.2 17.16 84.032 16.792 84.032 16.344C84.032 15.832 84.2 15.432 84.536 15.144C84.872 14.84 85.272 14.688 85.736 14.688C86.264 14.688 86.664 14.848 86.936 15.168C87.208 15.472 87.344 15.832 87.344 16.248Z" fill="#715936"/>
<defs>
<linearGradient id="paint0_linear_1_8" x1="21.5" y1="-13.5" x2="-10.5" y2="26.5" gradientUnits="userSpaceOnUse">
<stop offset="0.400306" stop-color="#604621"/>
<stop offset="0.822917" stop-color="#71562F" stop-opacity="0"/>
</linearGradient>
<linearGradient id="paint1_linear_1_8" x1="75" y1="4" x2="63.5" y2="27.5" gradientUnits="userSpaceOnUse">
<stop stop-color="#715936"/>
<stop offset="1" stop-color="#896025" stop-opacity="0"/>
</linearGradient>
</defs>
</svg>
