<svg width="44" height="36" viewBox="0 0 44 36" fill="none" xmlns="http://www.w3.org/2000/svg">
<path d="M0.832 6.576C2.08 4.528 3.648 3.088 5.536 2.256C7.456 1.392 9.584 1.152 11.92 1.536C14.32 1.984 16.224 3.12 17.632 4.944C19.104 6.864 19.744 9.136 19.552 11.76C19.424 13.104 19.2 14.336 18.88 15.456C18.592 16.576 18.176 17.584 17.632 18.48C17.12 19.376 16.56 20.224 15.952 21.024C15.344 21.824 14.72 22.592 14.08 23.328C13.44 24.064 12.736 24.784 11.968 25.488C11.232 26.192 10.448 26.896 9.616 27.6C8.816 28.304 7.984 29.056 7.12 29.856C6.256 30.656 5.36 31.472 4.432 32.304L18.592 32.16C19.36 32.288 19.712 32.704 19.648 33.408C19.616 34.08 19.216 34.496 18.448 34.656C7.696 34.848 1.792 34.8 0.736 34.512C0.768 33.232 1.2 32.16 2.032 31.296C2.448 30.912 3.2 30.24 4.288 29.28C5.376 28.288 6.8 27.024 8.56 25.488C12.112 22.416 14.4 19.904 15.424 17.952C15.968 16.96 16.384 15.936 16.672 14.88C16.992 13.824 17.184 12.736 17.248 11.616C17.408 9.344 16.944 7.552 15.856 6.24C14.832 4.928 13.344 4.096 11.392 3.744C9.504 3.456 7.824 3.664 6.352 4.368C4.848 5.04 3.568 6.192 2.512 7.824C1.872 8.656 1.36 8.88 0.976 8.496C0.528 8.112 0.48 7.472 0.832 6.576ZM27.04 3.12C26.944 12.24 26.896 17.472 26.896 18.816C27.664 17.728 29.104 16.896 31.216 16.32C33.296 15.808 35.44 15.856 37.648 16.464C39.792 17.072 41.392 18.256 42.448 20.016C42.928 20.88 43.296 21.744 43.552 22.608C43.808 23.44 43.936 24.288 43.936 25.152C43.936 26.912 43.6 28.56 42.928 30.096C42.192 31.696 41.28 32.912 40.192 33.744C39.072 34.608 37.248 35.168 34.72 35.424C32.16 35.648 30.112 35.216 28.576 34.128C27.776 33.584 27.12 33.008 26.608 32.4C26.096 31.76 25.696 31.104 25.408 30.432C25.152 29.728 24.944 28.992 24.784 28.224C24.656 27.424 24.592 26.576 24.592 25.68C24.56 24.784 24.56 22.448 24.592 18.672C24.656 14.864 24.72 9.6 24.784 2.88C24.976 1.92 25.408 1.456 26.08 1.488C26.72 1.52 27.04 2.064 27.04 3.12ZM31.36 32.976C33.056 33.52 34.528 33.632 35.776 33.312C36.416 33.152 37.024 32.96 37.6 32.736C38.176 32.512 38.72 32.224 39.232 31.872C40.256 31.2 41.024 29.728 41.536 27.456C42.048 25.216 41.792 23.264 40.768 21.6C39.68 19.968 38.304 18.896 36.64 18.384C34.976 17.872 33.12 18 31.072 18.768C30.08 19.12 29.264 19.568 28.624 20.112C28.016 20.656 27.584 21.264 27.328 21.936C27.104 22.64 26.928 23.392 26.8 24.192C26.704 24.96 26.688 25.76 26.752 26.592C26.848 28.32 27.248 29.68 27.952 30.672C28.304 31.184 28.752 31.632 29.296 32.016C29.872 32.4 30.56 32.72 31.36 32.976Z" fill="#71562F"/>
</svg>
